{
  "accessors": [
    {
      "bufferView": 0,
      "componentType": 5126,
      "count": 2880,
      "max": [
        72.4917984008789,
        67.25059509277344,
        13.399800300598145
      ],
      "min": [
        16.814001083374023,
        11.572797775268555,
        4.342599868774414
      ],
      "type": "VEC3"
    },
    {
      "bufferView": 1,
      "componentType": 5125,
      "count": 2880,
      "type": "SCALAR"
    },
    {
      "bufferView": 2,
      "componentType": 5126,
      "count": 2880,
      "type": "VEC3"
    },
    {
      "bufferView": 2,
      "byteOffset": 24,
      "componentType": 5126,
      "count": 2880,
      "type": "VEC2"
    },
    {
      "bufferView": 3,
      "componentType": 5126,
      "count": 15954,
      "max": [
        83.98789978027344,
        78.7334976196289,
        97.53809356689453
      ],
      "min": [
        5.317901611328125,
        0.0,
        18.13559913635254
      ],
      "type": "VEC3"
    },
    {
      "bufferView": 4,
      "componentType": 5125,
      "count": 15954,
      "type": "SCALAR"
    },
    {
      "bufferView": 5,
      "componentType": 5126,
      "count": 15954,
      "type": "VEC3"
    },
    {
      "bufferView": 5,
      "byteOffset": 24,
      "componentType": 5126,
      "count": 15954,
      "type": "VEC2"
    },
    {
      "bufferView": 6,
      "componentType": 5126,
      "count": 768,
      "max": [
        55.96659851074219,
        50.72539520263672,
        21.226600646972656
      ],
      "min": [
        33.339202880859375,
        28.097997665405273,
        11.378800392150879
      ],
      "type": "VEC3"
    },
    {
      "bufferView": 7,
      "componentType": 5125,
      "count": 768,
      "type": "SCALAR"
    },
    {
      "bufferView": 8,
      "componentType": 5126,
      "count": 768,
      "type": "VEC3"
    },
    {
      "bufferView": 8,
      "byteOffset": 24,
      "componentType": 5126,
      "count": 768,
      "type": "VEC2"
    },
    {
      "bufferView": 9,
      "componentType": 5126,
      "count": 21228,
      "max": [
        89.30580139160156,
        84.32499694824219,
        10.491999626159668
      ],
      "min": [
        0.0,
        8.226394653320313,
        0.0
      ],
      "type": "VEC3"
    },
    {
      "bufferView": 10,
      "componentType": 5125,
      "count": 21228,
      "type": "SCALAR"
    },
    {
      "bufferView": 11,
      "componentType": 5126,
      "count": 21228,
      "type": "VEC3"
    },
    {
      "bufferView": 11,
      "byteOffset": 24,
      "componentType": 5126,
      "count": 21228,
      "type": "VEC2"
    },
    {
      "bufferView": 12,
      "componentType": 5126,
      "count": 6912,
      "max": [
        74.60099792480469,
        69.35979461669922,
        20.798799514770508
      ],
      "min": [
        14.704801559448242,
        9.463600158691406,
        0.019300000742077827
      ],
      "type": "VEC3"
    },
    {
      "bufferView": 13,
      "componentType": 5125,
      "count": 6912,
      "type": "SCALAR"
    },
    {
      "bufferView": 14,
      "componentType": 5126,
      "count": 6912,
      "type": "VEC3"
    },
    {
      "bufferView": 14,
      "byteOffset": 24,
      "componentType": 5126,
      "count": 6912,
      "type": "VEC2"
    }
  ],
  "asset": {
    "version": "2.0"
  },
  "bufferViews": [
    {
      "buffer": 0,
      "byteLength": 34560,
      "target": 34962
    },
    {
      "buffer": 1,
      "byteLength": 11520,
      "target": 34963
    },
    {
      "buffer": 2,
      "byteLength": 92160,
      "byteStride": 32,
      "target": 34962
    },
    {
      "buffer": 3,
      "byteLength": 191448,
      "target": 34962
    },
    {
      "buffer": 4,
      "byteLength": 63816,
      "target": 34963
    },
    {
      "buffer": 5,
      "byteLength": 510528,
      "byteStride": 32,
      "target": 34962
    },
    {
      "buffer": 6,
      "byteLength": 9216,
      "target": 34962
    },
    {
      "buffer": 7,
      "byteLength": 3072,
      "target": 34963
    },
    {
      "buffer": 8,
      "byteLength": 24576,
      "byteStride": 32,
      "target": 34962
    },
    {
      "buffer": 9,
      "byteLength": 254736,
      "target": 34962
    },
    {
      "buffer": 10,
      "byteLength": 84912,
      "target": 34963
    },
    {
      "buffer": 11,
      "byteLength": 679296,
      "byteStride": 32,
      "target": 34962
    },
    {
      "buffer": 12,
      "byteLength": 82944,
      "target": 34962
    },
    {
      "buffer": 13,
      "byteLength": 27648,
      "target": 34963
    },
    {
      "buffer": 14,
      "byteLength": 221184,
      "byteStride": 32,
      "target": 34962
    }
  ],
  "buffers": [
    {
      "byteLength": 34560,
      "name": "Position Buffer",
      "uri": "data:application/octet-stream;base64,"
    },
    {
      "byteLength": 11520,
      "name": "Index Buffer",
      "uri": "data:application/octet-stream;base64,"
    },
    {
      "byteLength": 92160,
      "name": "Vertex Buffer",
      "uri": "data:application/octet-stream;base64,"
    },
    {
      "byteLength": 191448,
      "name": "Position Buffer",
      "uri": "data:application/octet-stream;base64,"
    },
    {
      "byteLength": 63816,
      "name": "Index Buffer",
      "uri": "data:application/octet-stream;base64,"
    },
    {
      "byteLength": 510528,
      "name": "Vertex Buffer",
      "uri": "data:application/octet-stream;base64,"
    },
    {
      "byteLength": 9216,
      "name": "Position Buffer",
      "uri": "data:application/octet-stream;base64,"
    },
    {
      "byteLength": 3072,
      "name": "Index Buffer",
      "uri": "data:application/octet-stream;base64,"
    },
    {
      "byteLength": 24576,
      "name": "Vertex Buffer",
      "uri": "data:application/octet-stream;base64,"
    },
    {
      "byteLength": 254736,
      "name": "Position Buffer",
      "uri": "data:application/octet-stream;base64,"
    },
    {
      "byteLength": 84912,
      "name": "Index Buffer",
      "uri": "data:application/octet-stream;base64,"
    },
    {
      "byteLength": 679296,
      "name": "Vertex Buffer",
      "uri": "data:application/octet-stream;base64,"
    },
    {
      "byteLength": 82944,
      "name": "Position Buffer",
      "uri": "data:application/octet-stream;base64,"
    },
    {
      "byteLength": 27648,
      "name": "Index Buffer",
      "uri": "data:application/octet-stream;base64,"
    },
    {
      "byteLength": 221184,
      "name": "Vertex Buffer",
      "uri": "data:application/octet-stream;base64,"
    }
  ],
  "cameras": [
    {
      "perspective": {
        "aspectRatio": 1.7777777910232544,
        "yfov": 0.7853981852531433,
        "zfar": 43.07728958129883,
        "znear": 0.004307728726416826
      },
      "type": "perspective"
    }
  ],
  "extras": null,
  "materials": [
    {
      "extras": {
        "bxdf": 10,
        "custom_string": "cc_ibiza_sunset_rgb",
        "ext_vector_2": [
          5.619929385004958e+19,
          1.5414283107572988e-44,
          6.692883848728307e+19,
          1.5414283107572988e-44
        ]
      }
    }
  ],
  "meshes": [
    {
      "primitives": [
        {
          "attributes": {
            "NORMAL": 2,
            "POSITION": 0,
            "TEXCOORD_0": 3
          },
          "indices": 1,
          "material": 0,
          "mode": 4
        }
      ]
    },
    {
      "primitives": [
        {
          "attributes": {
            "NORMAL": 6,
            "POSITION": 4,
            "TEXCOORD_0": 7
          },
          "indices": 5,
          "material": 0,
          "mode": 4
        }
      ]
    },
    {
      "primitives": [
        {
          "attributes": {
            "NORMAL": 10,
            "POSITION": 8,
            "TEXCOORD_0": 11
          },
          "indices": 9,
          "material": 0,
          "mode": 4
        }
      ]
    },
    {
      "primitives": [
        {
          "attributes": {
            "NORMAL": 14,
            "POSITION": 12,
            "TEXCOORD_0": 15
          },
          "indices": 13,
          "material": 0,
          "mode": 4
        }
      ]
    },
    {
      "primitives": [
        {
          "attributes": {
            "NORMAL": 18,
            "POSITION": 16,
            "TEXCOORD_0": 19
          },
          "indices": 17,
          "material": 0,
          "mode": 4
        }
      ]
    }
  ],
  "nodes": [
    {
      "children": [
        1
      ],
      "name": "Sketchfab_model",
      "rotation": [
        -0.7071067690849304,
        0.0,
        0.0,
        0.7071067690849304
      ],
      "scale": [
        1.0,
        1.0,
        1.0
      ],
      "translation": [
        0.0,
        0.0,
        0.0
      ]
    },
    {
      "children": [
        2,
        3,
        4,
        5,
        6
      ],
      "name": "lowagain.obj.cleaner.gles",
      "rotation": [
        0.0,
        0.0,
        0.0,
        1.0
      ],
      "scale": [
        0.05000000074505806,
        0.05000000074505806,
        0.05000000074505806
      ],
      "translation": [
        -44.65290069580078,
        -39.41169738769531,
        0.0
      ]
    },
    {
      "mesh": 0,
      "name": "Object_2",
      "rotation": [
        0.0,
        0.0,
        0.0,
        1.0
      ],
      "scale": [
        1.0,
        1.0,
        1.0
      ],
      "translation": [
        0.0,
        0.0,
        0.0
      ]
    },
    {
      "mesh": 1,
      "name": "Object_3",
      "rotation": [
        0.0,
        0.0,
        0.0,
        1.0
      ],
      "scale": [
        1.0,
        1.0,
        1.0
      ],
      "translation": [
        0.0,
        0.0,
        0.0
      ]
    },
    {
      "mesh": 2,
      "name": "Object_4",
      "rotation": [
        0.0,
        0.0,
        0.0,
        1.0
      ],
      "scale": [
        1.0,
        1.0,
        1.0
      ],
      "translation": [
        0.0,
        0.0,
        0.0
      ]
    },
    {
      "mesh": 3,
      "name": "Object_5",
      "rotation": [
        0.0,
        0.0,
        0.0,
        1.0
      ],
      "scale": [
        1.0,
        1.0,
        1.0
      ],
      "translation": [
        0.0,
        0.0,
        0.0
      ]
    },
    {
      "mesh": 4,
      "name": "Object_6",
      "rotation": [
        0.0,
        0.0,
        0.0,
        1.0
      ],
      "scale": [
        1.0,
        1.0,
        1.0
      ],
      "translation": [
        0.0,
        0.0,
        0.0
      ]
    },
    {
      "camera": 0,
      "extras": {
        "scripts": [
          "EditorCameraControllerScript"
        ]
      },
      "name": "Camera",
      "rotation": [
        -0.11318495124578476,
        -0.007875350303947926,
        -0.0008969663176685572,
        0.9935423135757446
      ],
      "scale": [
        1.0,
        1.0,
        1.0
      ],
      "translation": [
        -42.47925567626953,
        4.026092529296875,
        44.88984680175781
      ]
    }
  ],
  "scenes": [
    {
      "nodes": [
        0,
        7
      ]
    }
  ]
}
